%TF.GenerationSoftware,KiCad,Pcbnew,7.0.8*%
%TF.CreationDate,2023-11-20T21:57:44+00:00*%
%TF.ProjectId,ds_lite_tv_out_usb_c,64735f6c-6974-4655-9f74-765f6f75745f,rev?*%
%TF.SameCoordinates,Original*%
%TF.FileFunction,Copper,L2,Bot*%
%TF.FilePolarity,Positive*%
%FSLAX46Y46*%
G04 Gerber Fmt 4.6, Leading zero omitted, Abs format (unit mm)*
G04 Created by KiCad (PCBNEW 7.0.8) date 2023-11-20 21:57:44*
%MOMM*%
%LPD*%
G01*
G04 APERTURE LIST*
%TA.AperFunction,ComponentPad*%
%ADD10O,1.500000X1.000000*%
%TD*%
%TA.AperFunction,ComponentPad*%
%ADD11O,1.300000X2.300000*%
%TD*%
%TA.AperFunction,ComponentPad*%
%ADD12O,1.300000X2.600000*%
%TD*%
%TA.AperFunction,ViaPad*%
%ADD13C,0.800000*%
%TD*%
%TA.AperFunction,Conductor*%
%ADD14C,0.250000*%
%TD*%
G04 APERTURE END LIST*
D10*
%TO.P,BT1,1,+*%
%TO.N,Net-(BT1-+)*%
X148257400Y-100274920D03*
%TO.P,BT1,2,-*%
%TO.N,Net-(BT1--)*%
X151762600Y-100280000D03*
%TD*%
D11*
%TO.P,P1,S1,SHIELD*%
%TO.N,Net-(BT1-+)*%
X154100000Y-97940000D03*
D12*
X154100000Y-94115000D03*
D11*
X145460000Y-97940000D03*
D12*
X145460000Y-94115000D03*
%TD*%
D13*
%TO.N,Net-(BT1--)*%
X147607187Y-96520814D03*
X151904001Y-96482599D03*
%TO.N,Net-(P1-D+)*%
X147072398Y-95676418D03*
X149300000Y-96920000D03*
%TO.N,Net-(P1-D-)*%
X149060000Y-94951500D03*
X150305500Y-96560000D03*
%TD*%
D14*
%TO.N,Net-(BT1-+)*%
X145463800Y-94227000D02*
X154103800Y-94227000D01*
X154103800Y-98052000D02*
X154103800Y-94227000D01*
X145463800Y-94227000D02*
X145463800Y-98052000D01*
%TO.N,Net-(BT1--)*%
X148731373Y-97645000D02*
X150741600Y-97645000D01*
X151762600Y-96624000D02*
X151762600Y-100280000D01*
X147607187Y-96520814D02*
X148731373Y-97645000D01*
X150741600Y-97645000D02*
X151904001Y-96482599D01*
X151904001Y-96482599D02*
X151762600Y-96624000D01*
%TO.N,Net-(P1-D+)*%
X148000000Y-95620000D02*
X147710000Y-95620000D01*
X147710000Y-95620000D02*
X147128816Y-95620000D01*
X147128816Y-95620000D02*
X147072398Y-95676418D01*
X149300000Y-96920000D02*
X148000000Y-95620000D01*
%TO.N,Net-(P1-D-)*%
X149554300Y-95808800D02*
X150305500Y-96560000D01*
X149554300Y-95445800D02*
X149060000Y-94951500D01*
X149554300Y-95808800D02*
X149554300Y-95445800D01*
%TD*%
M02*
