%TF.GenerationSoftware,KiCad,Pcbnew,7.0.8*%
%TF.CreationDate,2023-11-20T21:57:44+00:00*%
%TF.ProjectId,ds_lite_tv_out_usb_c,64735f6c-6974-4655-9f74-765f6f75745f,rev?*%
%TF.SameCoordinates,Original*%
%TF.FileFunction,Copper,L1,Top*%
%TF.FilePolarity,Positive*%
%FSLAX46Y46*%
G04 Gerber Fmt 4.6, Leading zero omitted, Abs format (unit mm)*
G04 Created by KiCad (PCBNEW 7.0.8) date 2023-11-20 21:57:44*
%MOMM*%
%LPD*%
G01*
G04 APERTURE LIST*
G04 Aperture macros list*
%AMRoundRect*
0 Rectangle with rounded corners*
0 $1 Rounding radius*
0 $2 $3 $4 $5 $6 $7 $8 $9 X,Y pos of 4 corners*
0 Add a 4 corners polygon primitive as box body*
4,1,4,$2,$3,$4,$5,$6,$7,$8,$9,$2,$3,0*
0 Add four circle primitives for the rounded corners*
1,1,$1+$1,$2,$3*
1,1,$1+$1,$4,$5*
1,1,$1+$1,$6,$7*
1,1,$1+$1,$8,$9*
0 Add four rect primitives between the rounded corners*
20,1,$1+$1,$2,$3,$4,$5,0*
20,1,$1+$1,$4,$5,$6,$7,0*
20,1,$1+$1,$6,$7,$8,$9,0*
20,1,$1+$1,$8,$9,$2,$3,0*%
G04 Aperture macros list end*
%TA.AperFunction,ComponentPad*%
%ADD10O,1.500000X1.000000*%
%TD*%
%TA.AperFunction,SMDPad,CuDef*%
%ADD11R,0.520000X1.500000*%
%TD*%
%TA.AperFunction,SMDPad,CuDef*%
%ADD12R,0.270000X1.500000*%
%TD*%
%TA.AperFunction,ComponentPad*%
%ADD13O,1.300000X2.300000*%
%TD*%
%TA.AperFunction,ComponentPad*%
%ADD14O,1.300000X2.600000*%
%TD*%
%TA.AperFunction,SMDPad,CuDef*%
%ADD15RoundRect,0.237500X0.250000X0.237500X-0.250000X0.237500X-0.250000X-0.237500X0.250000X-0.237500X0*%
%TD*%
%TA.AperFunction,SMDPad,CuDef*%
%ADD16R,1.000000X1.000000*%
%TD*%
%TA.AperFunction,ViaPad*%
%ADD17C,0.800000*%
%TD*%
%TA.AperFunction,Conductor*%
%ADD18C,0.250000*%
%TD*%
G04 APERTURE END LIST*
D10*
%TO.P,BT1,1,+*%
%TO.N,Net-(BT1-+)*%
X148257400Y-100274920D03*
%TO.P,BT1,2,-*%
%TO.N,Net-(BT1--)*%
X151762600Y-100280000D03*
%TD*%
D11*
%TO.P,P1,A1,GND*%
%TO.N,Net-(BT1-+)*%
X152880000Y-98567000D03*
%TO.P,P1,A4,VBUS*%
%TO.N,Net-(BT1--)*%
X152130000Y-98567000D03*
D12*
%TO.P,P1,A5,CC*%
%TO.N,Net-(P1-CC)*%
X148030000Y-98567000D03*
%TO.P,P1,A6,D+*%
%TO.N,Net-(P1-D+)*%
X150030000Y-98565000D03*
X149030000Y-98567000D03*
%TO.P,P1,A7,D-*%
%TO.N,Net-(P1-D-)*%
X150530000Y-98565000D03*
X149530000Y-98567000D03*
D11*
%TO.P,P1,A9,VBUS*%
%TO.N,Net-(BT1--)*%
X147430000Y-98567000D03*
%TO.P,P1,A12,GND*%
%TO.N,Net-(BT1-+)*%
X146680000Y-98567000D03*
D12*
%TO.P,P1,B5,VCONN*%
%TO.N,Net-(P1-VCONN)*%
X151030000Y-98567000D03*
D13*
%TO.P,P1,S1,SHIELD*%
%TO.N,Net-(BT1-+)*%
X154100000Y-97940000D03*
D14*
X154100000Y-94115000D03*
D13*
X145460000Y-97940000D03*
D14*
X145460000Y-94115000D03*
%TD*%
D15*
%TO.P,R2,1*%
%TO.N,Net-(P1-VCONN)*%
X155510000Y-102030000D03*
%TO.P,R2,2*%
%TO.N,Net-(BT1-+)*%
X153685000Y-102030000D03*
%TD*%
D16*
%TO.P,L,1,1*%
%TO.N,Net-(P1-D+)*%
X143590000Y-98379840D03*
%TD*%
D15*
%TO.P,R1,1*%
%TO.N,Net-(P1-CC)*%
X155495000Y-100507800D03*
%TO.P,R1,2*%
%TO.N,Net-(BT1-+)*%
X153670000Y-100507800D03*
%TD*%
D16*
%TO.P,Com,1,1*%
%TO.N,Net-(P1-D-)*%
X143590000Y-94460000D03*
%TD*%
D17*
%TO.N,Net-(BT1--)*%
X147607187Y-96520814D03*
X151904001Y-96482599D03*
%TO.N,Net-(P1-D+)*%
X147072398Y-95676418D03*
X149300000Y-96920000D03*
%TO.N,Net-(P1-D-)*%
X149060000Y-94951500D03*
X150305500Y-96560000D03*
%TD*%
D18*
%TO.N,Net-(BT1-+)*%
X153476800Y-98679000D02*
X154103800Y-98052000D01*
X146683800Y-98679000D02*
X146090800Y-98679000D01*
X146680000Y-98567000D02*
X146680000Y-99317000D01*
X154103800Y-100074000D02*
X154103800Y-98052000D01*
X152883800Y-98679000D02*
X153476800Y-98679000D01*
X147637920Y-100274920D02*
X148257400Y-100274920D01*
X146680000Y-99317000D02*
X147637920Y-100274920D01*
X153673800Y-102031800D02*
X153673800Y-100511600D01*
X146090800Y-98679000D02*
X145463800Y-98052000D01*
X153673800Y-100511600D02*
X153670000Y-100507800D01*
X153670000Y-100507800D02*
X154103800Y-100074000D01*
%TO.N,Net-(BT1--)*%
X152133800Y-97679000D02*
X152133800Y-98679000D01*
X147583800Y-96544201D02*
X147607187Y-96520814D01*
X151765000Y-100279200D02*
X152015000Y-100279200D01*
X147583800Y-97566200D02*
X147583800Y-96544201D01*
X151904001Y-97449201D02*
X152133800Y-97679000D01*
X147430000Y-97720000D02*
X147583800Y-97566200D01*
X147430000Y-98567000D02*
X147430000Y-97720000D01*
X151904001Y-96482599D02*
X151904001Y-97449201D01*
%TO.N,Net-(P1-CC)*%
X155528800Y-96955004D02*
X154694596Y-96120800D01*
X153397800Y-96120800D02*
X152171400Y-94894400D01*
X154694596Y-96120800D02*
X153397800Y-96120800D01*
X148033800Y-97118800D02*
X148033800Y-98679000D01*
X155495000Y-100507800D02*
X155528800Y-100474000D01*
X155528800Y-100474000D02*
X155528800Y-96955004D01*
X150190200Y-94962400D02*
X148033800Y-97118800D01*
X152171400Y-94894400D02*
X150190200Y-94894400D01*
X150190200Y-94894400D02*
X150190200Y-94962400D01*
%TO.N,Net-(P1-VCONN)*%
X154682500Y-101215500D02*
X154682500Y-99352158D01*
X154682500Y-99352158D02*
X155078800Y-98955858D01*
X151030000Y-95704400D02*
X151390000Y-95344400D01*
X151790400Y-95344400D02*
X151390000Y-95344400D01*
X154508200Y-96570800D02*
X153016800Y-96570800D01*
X155078800Y-98955858D02*
X155078800Y-97141400D01*
X155498800Y-102031800D02*
X154682500Y-101215500D01*
X153016800Y-96570800D02*
X151790400Y-95344400D01*
X155078800Y-97141400D02*
X154508200Y-96570800D01*
X151030000Y-98567000D02*
X151030000Y-95704400D01*
%TO.N,Net-(P1-D+)*%
X150030000Y-98565000D02*
X150030000Y-97650000D01*
X147072398Y-95676418D02*
X146528307Y-96220509D01*
X149300000Y-96920000D02*
X149030000Y-97190000D01*
X143590000Y-97350000D02*
X143590000Y-98379840D01*
X144719491Y-96220509D02*
X143590000Y-97350000D01*
X146528307Y-96220509D02*
X144719491Y-96220509D01*
X149030000Y-97190000D02*
X149030000Y-98567000D01*
X150030000Y-97650000D02*
X149300000Y-96920000D01*
%TO.N,Net-(P1-D-)*%
X149060000Y-94951500D02*
X146648279Y-94951500D01*
X150530000Y-96784500D02*
X150530000Y-98565000D01*
X149530000Y-100130000D02*
X149770000Y-100370000D01*
X150530000Y-100030000D02*
X150530000Y-98565000D01*
X150190000Y-100370000D02*
X150530000Y-100030000D01*
X144868717Y-95738717D02*
X143590000Y-94460000D01*
X146648279Y-94951500D02*
X145861062Y-95738717D01*
X150305500Y-96560000D02*
X150530000Y-96784500D01*
X149530000Y-98567000D02*
X149530000Y-100130000D01*
X149770000Y-100370000D02*
X150190000Y-100370000D01*
X145861062Y-95738717D02*
X144868717Y-95738717D01*
%TD*%
M02*
