%TF.GenerationSoftware,KiCad,Pcbnew,7.0.9*%
%TF.CreationDate,2024-01-10T16:41:44+00:00*%
%TF.ProjectId,ds_lite_tv_out_tv_side,64735f6c-6974-4655-9f74-765f6f75745f,rev?*%
%TF.SameCoordinates,Original*%
%TF.FileFunction,Copper,L1,Top*%
%TF.FilePolarity,Positive*%
%FSLAX46Y46*%
G04 Gerber Fmt 4.6, Leading zero omitted, Abs format (unit mm)*
G04 Created by KiCad (PCBNEW 7.0.9) date 2024-01-10 16:41:44*
%MOMM*%
%LPD*%
G01*
G04 APERTURE LIST*
G04 Aperture macros list*
%AMRoundRect*
0 Rectangle with rounded corners*
0 $1 Rounding radius*
0 $2 $3 $4 $5 $6 $7 $8 $9 X,Y pos of 4 corners*
0 Add a 4 corners polygon primitive as box body*
4,1,4,$2,$3,$4,$5,$6,$7,$8,$9,$2,$3,0*
0 Add four circle primitives for the rounded corners*
1,1,$1+$1,$2,$3*
1,1,$1+$1,$4,$5*
1,1,$1+$1,$6,$7*
1,1,$1+$1,$8,$9*
0 Add four rect primitives between the rounded corners*
20,1,$1+$1,$2,$3,$4,$5,0*
20,1,$1+$1,$4,$5,$6,$7,0*
20,1,$1+$1,$6,$7,$8,$9,0*
20,1,$1+$1,$8,$9,$2,$3,0*%
G04 Aperture macros list end*
%TA.AperFunction,ComponentPad*%
%ADD10C,2.700000*%
%TD*%
%TA.AperFunction,ComponentPad*%
%ADD11C,2.200000*%
%TD*%
%TA.AperFunction,SMDPad,CuDef*%
%ADD12R,0.520000X1.500000*%
%TD*%
%TA.AperFunction,SMDPad,CuDef*%
%ADD13R,0.270000X1.500000*%
%TD*%
%TA.AperFunction,ComponentPad*%
%ADD14O,1.300000X2.300000*%
%TD*%
%TA.AperFunction,ComponentPad*%
%ADD15O,1.300000X2.600000*%
%TD*%
%TA.AperFunction,SMDPad,CuDef*%
%ADD16RoundRect,0.237500X0.250000X0.237500X-0.250000X0.237500X-0.250000X-0.237500X0.250000X-0.237500X0*%
%TD*%
%TA.AperFunction,ComponentPad*%
%ADD17C,1.500000*%
%TD*%
%TA.AperFunction,SMDPad,CuDef*%
%ADD18R,0.600000X1.500000*%
%TD*%
%TA.AperFunction,SMDPad,CuDef*%
%ADD19R,0.500000X1.500000*%
%TD*%
%TA.AperFunction,SMDPad,CuDef*%
%ADD20RoundRect,0.237500X0.237500X-0.250000X0.237500X0.250000X-0.237500X0.250000X-0.237500X-0.250000X0*%
%TD*%
%TA.AperFunction,ViaPad*%
%ADD21C,0.800000*%
%TD*%
%TA.AperFunction,Conductor*%
%ADD22C,0.250000*%
%TD*%
G04 APERTURE END LIST*
D10*
%TO.P,J1,1,In*%
%TO.N,Net-(J1-In)*%
X156410000Y-95820000D03*
%TO.P,J1,2,Ext*%
%TO.N,Net-(J1-Ext)*%
X151030000Y-88450000D03*
D11*
%TO.P,J1,3*%
%TO.N,N/C*%
X147380000Y-88450000D03*
D10*
X151030000Y-94800000D03*
D11*
X154680000Y-88450000D03*
%TD*%
D12*
%TO.P,P1,A1,GND*%
%TO.N,Net-(J1-Ext)*%
X135570000Y-97788000D03*
%TO.P,P1,A4,VBUS*%
%TO.N,Net-(U1-VBUS)*%
X136320000Y-97788000D03*
D13*
%TO.P,P1,A5,CC*%
%TO.N,unconnected-(P1-CC-PadA5)*%
X140420000Y-97788000D03*
%TO.P,P1,A6,D+*%
%TO.N,Net-(J2-In)*%
X138420000Y-97790000D03*
X139420000Y-97788000D03*
%TO.P,P1,A7,D-*%
%TO.N,Net-(J1-In)*%
X137920000Y-97790000D03*
X138920000Y-97788000D03*
D12*
%TO.P,P1,A9,VBUS*%
%TO.N,Net-(U1-VBUS)*%
X141020000Y-97788000D03*
%TO.P,P1,A12,GND*%
%TO.N,Net-(J1-Ext)*%
X141770000Y-97788000D03*
D13*
%TO.P,P1,B5,VCONN*%
%TO.N,unconnected-(P1-VCONN-PadB5)*%
X137420000Y-97788000D03*
D14*
%TO.P,P1,S1,SHIELD*%
%TO.N,unconnected-(P1-SHIELD-PadS1)*%
X134350000Y-98415000D03*
D15*
X134350000Y-102240000D03*
D14*
X142990000Y-98415000D03*
D15*
X142990000Y-102240000D03*
%TD*%
D16*
%TO.P,R2,1*%
%TO.N,Net-(J1-Ext)*%
X142565000Y-91600000D03*
%TO.P,R2,2*%
%TO.N,Net-(U1-CC1)*%
X140740000Y-91600000D03*
%TD*%
D10*
%TO.P,J2,1,In*%
%TO.N,Net-(J2-In)*%
X169430000Y-95820000D03*
%TO.P,J2,2,Ext*%
%TO.N,Net-(J1-Ext)*%
X164050000Y-88450000D03*
D11*
%TO.P,J2,3*%
%TO.N,N/C*%
X160400000Y-88450000D03*
D10*
X164050000Y-94800000D03*
D11*
X167700000Y-88450000D03*
%TD*%
D17*
%TO.P,U1,1,GND*%
%TO.N,Net-(J1-Ext)*%
X134354000Y-85240000D03*
X134354000Y-89037300D03*
D18*
X135913560Y-89286220D03*
X141420280Y-89296380D03*
D17*
X142990000Y-85240000D03*
X142990000Y-89037300D03*
D19*
%TO.P,U1,2,VBUS*%
%TO.N,Net-(U1-VBUS)*%
X137142920Y-89286220D03*
X140190920Y-89296380D03*
%TO.P,U1,3,CC2*%
%TO.N,Net-(U1-CC2)*%
X138164000Y-89291300D03*
%TO.P,U1,4,CC1*%
%TO.N,Net-(U1-CC1)*%
X139180000Y-89296380D03*
%TD*%
D20*
%TO.P,R1,1*%
%TO.N,Net-(J1-Ext)*%
X134480000Y-93652500D03*
%TO.P,R1,2*%
%TO.N,Net-(U1-CC2)*%
X134480000Y-91827500D03*
%TD*%
D21*
%TO.N,Net-(J1-Ext)*%
X141000000Y-96220000D03*
%TD*%
D22*
%TO.N,Net-(U1-VBUS)*%
X138302000Y-100260000D02*
X139470000Y-100260000D01*
X136320000Y-98278000D02*
X138302000Y-100260000D01*
X136320000Y-97788000D02*
X136320000Y-98278000D01*
X139470000Y-100260000D02*
X141020000Y-98710000D01*
X141020000Y-98710000D02*
X141020000Y-97788000D01*
X138080000Y-87300000D02*
X138420000Y-87300000D01*
X138420000Y-87300000D02*
X138900000Y-87300000D01*
X144990000Y-88300000D02*
X143990000Y-87300000D01*
X143990000Y-87300000D02*
X138420000Y-87300000D01*
X138900000Y-87300000D02*
X139360000Y-87300000D01*
X136320000Y-97788000D02*
X136320000Y-95320000D01*
X136320000Y-95320000D02*
X137870000Y-93770000D01*
X137870000Y-93770000D02*
X142490000Y-93770000D01*
X142490000Y-93770000D02*
X144990000Y-91270000D01*
X144990000Y-91270000D02*
X144990000Y-88300000D01*
%TO.N,Net-(J1-In)*%
X138595000Y-95915000D02*
X139530000Y-94980000D01*
X139530000Y-94980000D02*
X148090000Y-94980000D01*
X148090000Y-94980000D02*
X150100000Y-96990000D01*
X150100000Y-96990000D02*
X155240000Y-96990000D01*
X155240000Y-96990000D02*
X156410000Y-95820000D01*
%TO.N,Net-(J1-Ext)*%
X141770000Y-96990000D02*
X141000000Y-96220000D01*
X141420280Y-89296380D02*
X142730920Y-89296380D01*
X142565000Y-91600000D02*
X142990000Y-91175000D01*
X135570000Y-94742500D02*
X135570000Y-97788000D01*
X133600000Y-89791300D02*
X134354000Y-89037300D01*
X135664640Y-89037300D02*
X135913560Y-89286220D01*
X134480000Y-93652500D02*
X135570000Y-94742500D01*
X133600000Y-92772500D02*
X133600000Y-89791300D01*
X142990000Y-91175000D02*
X142990000Y-89037300D01*
X134480000Y-93652500D02*
X133600000Y-92772500D01*
X134354000Y-89037300D02*
X135664640Y-89037300D01*
X142730920Y-89296380D02*
X142990000Y-89037300D01*
X141770000Y-97788000D02*
X141770000Y-96990000D01*
%TO.N,Net-(U1-VBUS)*%
X137142920Y-88237080D02*
X138080000Y-87300000D01*
X137142920Y-89286220D02*
X137142920Y-88237080D01*
X139360000Y-87300000D02*
X140190920Y-88130920D01*
X140190920Y-88130920D02*
X140190920Y-89296380D01*
%TO.N,unconnected-(P1-SHIELD-PadS1)*%
X142990000Y-102240000D02*
X134350000Y-102240000D01*
X142990000Y-98415000D02*
X142990000Y-102240000D01*
X134350000Y-102240000D02*
X134350000Y-98415000D01*
%TO.N,Net-(U1-CC2)*%
X138164000Y-89791300D02*
X136127800Y-91827500D01*
X138164000Y-89291300D02*
X138164000Y-89791300D01*
X136127800Y-91827500D02*
X134480000Y-91827500D01*
%TO.N,Net-(U1-CC1)*%
X139180000Y-90040000D02*
X140740000Y-91600000D01*
X139180000Y-89296380D02*
X139180000Y-90040000D01*
%TO.N,Net-(J1-In)*%
X138920000Y-96240000D02*
X138595000Y-95915000D01*
X137920000Y-96590000D02*
X137920000Y-97790000D01*
X138595000Y-95915000D02*
X137920000Y-96590000D01*
X138920000Y-97788000D02*
X138920000Y-96240000D01*
%TO.N,Net-(J2-In)*%
X141570000Y-95430000D02*
X142615000Y-96475000D01*
X142615000Y-96475000D02*
X146505000Y-96475000D01*
X149260000Y-99230000D02*
X166020000Y-99230000D01*
X139420000Y-95910000D02*
X139420000Y-97788000D01*
X138687000Y-99090000D02*
X139140000Y-99090000D01*
X166020000Y-99230000D02*
X169430000Y-95820000D01*
X141570000Y-95430000D02*
X139900000Y-95430000D01*
X138420000Y-98823000D02*
X138687000Y-99090000D01*
X146505000Y-96475000D02*
X149260000Y-99230000D01*
X139900000Y-95430000D02*
X139420000Y-95910000D01*
X139420000Y-98810000D02*
X139420000Y-97788000D01*
X138420000Y-97790000D02*
X138420000Y-98823000D01*
X139140000Y-99090000D02*
X139420000Y-98810000D01*
%TD*%
M02*
