%TF.GenerationSoftware,KiCad,Pcbnew,7.0.9*%
%TF.CreationDate,2024-01-10T16:41:44+00:00*%
%TF.ProjectId,ds_lite_tv_out_tv_side,64735f6c-6974-4655-9f74-765f6f75745f,rev?*%
%TF.SameCoordinates,Original*%
%TF.FileFunction,Soldermask,Top*%
%TF.FilePolarity,Negative*%
%FSLAX46Y46*%
G04 Gerber Fmt 4.6, Leading zero omitted, Abs format (unit mm)*
G04 Created by KiCad (PCBNEW 7.0.9) date 2024-01-10 16:41:44*
%MOMM*%
%LPD*%
G01*
G04 APERTURE LIST*
G04 Aperture macros list*
%AMRoundRect*
0 Rectangle with rounded corners*
0 $1 Rounding radius*
0 $2 $3 $4 $5 $6 $7 $8 $9 X,Y pos of 4 corners*
0 Add a 4 corners polygon primitive as box body*
4,1,4,$2,$3,$4,$5,$6,$7,$8,$9,$2,$3,0*
0 Add four circle primitives for the rounded corners*
1,1,$1+$1,$2,$3*
1,1,$1+$1,$4,$5*
1,1,$1+$1,$6,$7*
1,1,$1+$1,$8,$9*
0 Add four rect primitives between the rounded corners*
20,1,$1+$1,$2,$3,$4,$5,0*
20,1,$1+$1,$4,$5,$6,$7,0*
20,1,$1+$1,$6,$7,$8,$9,0*
20,1,$1+$1,$8,$9,$2,$3,0*%
G04 Aperture macros list end*
%ADD10C,2.700000*%
%ADD11C,2.200000*%
%ADD12C,0.600000*%
%ADD13O,0.850000X0.600000*%
%ADD14R,0.520000X1.500000*%
%ADD15R,0.270000X1.500000*%
%ADD16O,1.300000X2.300000*%
%ADD17O,1.300000X2.600000*%
%ADD18RoundRect,0.237500X0.250000X0.237500X-0.250000X0.237500X-0.250000X-0.237500X0.250000X-0.237500X0*%
%ADD19C,1.500000*%
%ADD20R,0.600000X1.500000*%
%ADD21R,0.500000X1.500000*%
%ADD22RoundRect,0.237500X0.237500X-0.250000X0.237500X0.250000X-0.237500X0.250000X-0.237500X-0.250000X0*%
G04 APERTURE END LIST*
D10*
%TO.C,J1*%
X156410000Y-95820000D03*
X151030000Y-88450000D03*
D11*
X147380000Y-88450000D03*
D10*
X151030000Y-94800000D03*
D11*
X154680000Y-88450000D03*
%TD*%
D12*
%TO.C,P1*%
X135670000Y-99140000D03*
D13*
X141670000Y-99140000D03*
D14*
X135570000Y-97788000D03*
X136320000Y-97788000D03*
D15*
X140420000Y-97788000D03*
X138420000Y-97790000D03*
X139420000Y-97788000D03*
X137920000Y-97790000D03*
X138920000Y-97788000D03*
D14*
X141020000Y-97788000D03*
X141770000Y-97788000D03*
D15*
X137420000Y-97788000D03*
D16*
X134350000Y-98415000D03*
D17*
X134350000Y-102240000D03*
D16*
X142990000Y-98415000D03*
D17*
X142990000Y-102240000D03*
%TD*%
D18*
%TO.C,R2*%
X142565000Y-91600000D03*
X140740000Y-91600000D03*
%TD*%
D10*
%TO.C,J2*%
X169430000Y-95820000D03*
X164050000Y-88450000D03*
D11*
X160400000Y-88450000D03*
D10*
X164050000Y-94800000D03*
D11*
X167700000Y-88450000D03*
%TD*%
D19*
%TO.C,U1*%
X134354000Y-85240000D03*
X134354000Y-89037300D03*
D20*
X135913560Y-89286220D03*
X141420280Y-89296380D03*
D19*
X142990000Y-85240000D03*
X142990000Y-89037300D03*
D21*
X137142920Y-89286220D03*
X140190920Y-89296380D03*
X138164000Y-89291300D03*
X139180000Y-89296380D03*
%TD*%
D22*
%TO.C,R1*%
X134480000Y-93652500D03*
X134480000Y-91827500D03*
%TD*%
M02*
