M48
METRIC,TZ
T1C0.400
T2C0.600
T3C1.200
T4C2.000
T5C2.200
%
G90
G05
T1
X141000Y-96220
T3
X134354Y-85240
X134354Y-89037
X142990Y-85240
X142990Y-89037
T4
X147380Y-88450
X154680Y-88450
X160400Y-88450
X167700Y-88450
T5
X151030Y-88450
X151030Y-94800
X156410Y-95820
X164050Y-88450
X164050Y-94800
X169430Y-95820
T2
G00X134350Y-97915
M15
G01X134350Y-98915
M16
G05
G00X134350Y-101590
M15
G01X134350Y-102890
M16
G05
G00X142990Y-97915
M15
G01X142990Y-98915
M16
G05
G00X142990Y-101590
M15
G01X142990Y-102890
M16
G05
T0
M30
